<svg width="51" height="51" viewBox="0 0 51 51" fill="none" xmlns="http://www.w3.org/2000/svg">
<mask id="path-1-inside-1" fill="white">
<path fill-rule="evenodd" clip-rule="evenodd" d="M46.2934 38.913C48.8839 34.9645 50.3905 30.2412 50.3905 25.166C50.3905 11.307 39.1556 0.0721436 25.2967 0.0721436C11.4377 0.0721436 0.202846 11.307 0.202846 25.166C0.202846 30.2412 1.7095 34.9645 4.29993 38.913C1.70948 40.0665 0.20282 41.4463 0.20282 42.929C0.20282 46.9712 11.4018 50.2493 25.2302 50.2597C25.2524 50.2598 25.2745 50.2598 25.2967 50.2598C25.3189 50.2598 25.341 50.2598 25.3632 50.2597C39.1915 50.2493 50.3905 46.9712 50.3905 42.929C50.3905 41.4463 48.8839 40.0665 46.2934 38.913Z"/>
</mask>
<path d="M46.2934 38.913L43.7851 37.2674L41.8493 40.218L45.0731 41.6536L46.2934 38.913ZM4.29993 38.913L5.52028 41.6536L8.74409 40.218L6.8083 37.2674L4.29993 38.913ZM25.2302 50.2597L25.238 47.2598L25.2325 47.2597L25.2302 50.2597ZM25.3632 50.2597L25.3609 47.2597L25.3554 47.2598L25.3632 50.2597ZM47.3905 25.166C47.3905 29.6388 46.0646 33.7928 43.7851 37.2674L48.8018 40.5586C51.7032 36.1362 53.3905 30.8436 53.3905 25.166H47.3905ZM25.2967 3.07214C37.4988 3.07214 47.3905 12.9639 47.3905 25.166H53.3905C53.3905 9.65019 40.8125 -2.92786 25.2967 -2.92786V3.07214ZM3.20285 25.166C3.20285 12.9639 13.0946 3.07214 25.2967 3.07214V-2.92786C9.78089 -2.92786 -2.79715 9.65019 -2.79715 25.166H3.20285ZM6.8083 37.2674C4.5288 33.7928 3.20285 29.6388 3.20285 25.166H-2.79715C-2.79715 30.8436 -1.1098 36.1362 1.79156 40.5586L6.8083 37.2674ZM3.20282 42.929C3.20282 43.2819 3.01072 43.2957 3.3608 42.9586C3.71613 42.6165 4.39682 42.1538 5.52028 41.6536L3.07958 36.1724C1.6126 36.8257 0.244731 37.6297 -0.800888 38.6365C-1.85175 39.6484 -2.79718 41.0935 -2.79718 42.929H3.20282ZM25.2325 47.2597C18.5199 47.2547 12.5596 46.4529 8.374 45.2272C6.26142 44.6085 4.7705 43.9303 3.87567 43.3112C2.88973 42.629 3.20282 42.4505 3.20282 42.929H-2.79718C-2.79718 45.4286 -1.08421 47.1756 0.461794 48.2453C2.09892 49.378 4.27202 50.2779 6.68773 50.9854C11.5588 52.4118 18.1121 53.2544 25.2279 53.2597L25.2325 47.2597ZM25.2967 47.2598C25.2773 47.2598 25.2577 47.2598 25.238 47.2598L25.2225 53.2597C25.247 53.2598 25.2718 53.2598 25.2967 53.2598V47.2598ZM25.3554 47.2598C25.3357 47.2598 25.3161 47.2598 25.2967 47.2598V53.2598C25.3216 53.2598 25.3464 53.2598 25.3709 53.2597L25.3554 47.2598ZM47.3905 42.929C47.3905 42.4505 47.7036 42.629 46.7177 43.3112C45.8228 43.9303 44.3319 44.6085 42.2193 45.2272C38.0338 46.4529 32.0735 47.2547 25.3609 47.2597L25.3655 53.2597C32.4813 53.2544 39.0346 52.4118 43.9056 50.9853C46.3213 50.2779 48.4944 49.378 50.1315 48.2453C51.6775 47.1756 53.3905 45.4286 53.3905 42.929H47.3905ZM45.0731 41.6536C46.1965 42.1539 46.8772 42.6165 47.2325 42.9586C47.5826 43.2957 47.3905 43.2819 47.3905 42.929H53.3905C53.3905 41.0935 52.4451 39.6484 51.3942 38.6365C50.3486 37.6297 48.9808 36.8257 47.5138 36.1724L45.0731 41.6536Z" fill="white" mask="url(#path-1-inside-1)"/>
<circle cx="25.5786" cy="25.4479" r="10.9059" stroke="white" stroke-width="3"/>
</svg>
