<svg width="487" height="326" viewBox="0 0 487 326" fill="none" xmlns="http://www.w3.org/2000/svg">
<path d="M333.515 286.949L345.259 293.73C343.784 296.285 340.517 297.16 337.961 295.685L335.47 294.247C332.915 292.772 332.039 289.504 333.515 286.949Z" fill="#C4C4C4"/>
<path d="M341.959 239.31L383.005 263.008L371.122 283.591C364.578 294.925 350.084 298.809 338.75 292.265C327.415 285.721 323.532 271.227 330.076 259.892L341.959 239.31Z" fill="#CDCDCD"/>
<path d="M334.191 286.486C330.119 280.46 329.253 276.613 329.617 269.119C329.617 269.119 327.326 274.316 327.884 277.682C328.576 281.855 334.191 286.486 334.191 286.486Z" fill="white"/>
<circle cx="404.311" cy="178.229" r="58.7318" transform="rotate(30 404.311 178.229)" fill="#F0D27E"/>
<rect x="382.979" y="167.85" width="47.3964" height="78.3548" transform="rotate(30 382.979 167.85)" fill="#F0D27E"/>
<path d="M384.847 259.406C394.219 244.397 402.727 239.108 422.281 233.882L398.018 236.593L384.847 259.406Z" fill="#F0D27E"/>
<path d="M343.801 235.708C352.113 220.087 352.44 210.075 347.188 190.527L356.972 212.895L343.801 235.708Z" fill="#F0D27E"/>
<path d="M447.844 150.983C452.742 172.212 451.022 183.901 441.937 204.461C441.937 204.461 453.939 192.396 456.001 182.384C458.556 169.974 447.844 150.983 447.844 150.983Z" fill="white"/>
<ellipse cx="391.291" cy="200.37" rx="33.8008" ry="54.3484" transform="rotate(30 391.291 200.37)" fill="#F2D480"/>
<ellipse cx="363.923" cy="248.591" rx="31.5405" ry="2.94515" transform="rotate(30 363.923 248.591)" fill="#C4C4C4"/>
<ellipse cx="360.979" cy="253.692" rx="31.5405" ry="2.94515" transform="rotate(30 360.979 253.692)" fill="#C4C4C4"/>
<ellipse cx="362.29" cy="251.009" rx="34.6227" ry="4.41773" transform="rotate(30 362.29 251.009)" fill="#C4C4C4"/>
<path d="M239.049 291.076H260.014C260.014 295.637 256.316 299.335 251.755 299.335H247.308C242.746 299.335 239.049 295.637 239.049 291.076Z" fill="#C4C4C4"/>
<path d="M213.53 220.769H286.802V257.51C286.802 277.744 270.4 294.146 250.166 294.146C229.933 294.146 213.53 277.744 213.53 257.51V220.769Z" fill="#CDCDCD"/>
<path d="M239.596 289.934C229.487 285.014 225.354 280.532 220.048 270.217C220.048 270.217 220.998 278.947 224.347 283.022C228.499 288.073 239.596 289.934 239.596 289.934Z" fill="white"/>
<circle cx="249.796" cy="90.7958" r="90.7958" fill="#F0D27E"/>
<rect x="213.213" y="93.3899" width="73.2719" height="121.132" fill="#F0D27E"/>
<path d="M286.484 214.521C287.43 187.184 294.732 173.526 316.873 151.414L286.484 173.798V214.521Z" fill="#F0D27E"/>
<path d="M213.213 214.521C212.267 187.184 204.965 173.526 182.824 151.414L213.213 173.798V214.521Z" fill="#F0D27E"/>
<path d="M287.019 20.6679C309.986 45.3043 316.718 62.2832 320.448 96.8305C320.448 96.8305 327.19 71.4012 322.211 56.4033C316.04 37.8144 287.019 20.6679 287.019 20.6679Z" fill="white"/>
<ellipse cx="249.478" cy="130.502" rx="52.2539" ry="84.0192" fill="#F2D480"/>
<ellipse cx="250.112" cy="216.216" rx="48.7597" ry="4.55303" fill="#C4C4C4"/>
<ellipse cx="250.113" cy="225.322" rx="48.7597" ry="4.55303" fill="#C4C4C4"/>
<ellipse cx="249.795" cy="220.716" rx="53.5245" ry="6.82954" fill="#C4C4C4"/>
<rect x="206.999" y="239" width="65" height="4" rx="2" fill="#6C6C6C"/>
<rect x="206.999" y="248" width="85" height="4" rx="2" fill="#6C6C6C"/>
<rect x="259.999" y="256" width="32" height="4" rx="2" fill="#6C6C6C"/>
<path d="M153.098 286.1L141.353 293.03C142.828 295.641 146.118 296.522 148.701 294.998L151.092 293.588C153.675 292.064 154.573 288.711 153.098 286.1Z" fill="#C4C4C4"/>
<path d="M144.653 237.414L103.607 261.633L115.618 282.894C122.092 294.352 136.528 298.22 147.863 291.532C159.197 284.844 163.138 270.134 156.665 258.675L144.653 237.414Z" fill="#CDCDCD"/>
<path d="M152.421 285.627C156.493 279.468 157.359 275.536 156.995 267.878C156.995 267.878 159.287 273.189 158.728 276.63C158.036 280.893 152.421 285.627 152.421 285.627Z" fill="white"/>
<ellipse rx="59.057" ry="59.7021" transform="matrix(-0.861257 0.50817 0.491874 0.870666 82.3015 174.992)" fill="#F0D27E"/>
<rect width="47.6588" height="79.6492" transform="matrix(-0.861257 0.50817 0.491874 0.870666 103.634 164.385)" fill="#F0D27E"/>
<path d="M101.765 257.952C92.3932 242.613 83.8857 237.208 64.3309 231.867L88.5939 234.637L101.765 257.952Z" fill="#F0D27E"/>
<path d="M142.811 233.733C134.499 217.769 134.172 207.537 139.424 187.56L129.64 210.418L142.811 233.733Z" fill="#F0D27E"/>
<path d="M38.7682 147.147C33.8701 168.843 35.5908 180.788 44.6749 201.799C44.6749 201.799 32.673 189.469 30.6116 179.237C28.0567 166.555 38.7682 147.147 38.7682 147.147Z" fill="white"/>
<ellipse rx="33.9879" ry="55.2462" transform="matrix(-0.861257 0.50817 0.491874 0.870666 95.3218 197.619)" fill="#F2D480"/>
<ellipse rx="31.7152" ry="2.99381" transform="matrix(-0.861257 0.50817 0.491874 0.870666 122.689 246.898)" fill="#C4C4C4"/>
<ellipse rx="31.7152" ry="2.99381" transform="matrix(-0.861257 0.50817 0.491874 0.870666 125.633 252.112)" fill="#C4C4C4"/>
<ellipse rx="34.8144" ry="4.49071" transform="matrix(-0.861257 0.50817 0.491874 0.870666 124.322 249.37)" fill="#C4C4C4"/>
<rect width="43.0606" height="2.67883" rx="1.33941" transform="matrix(0.861257 -0.50817 0.491874 0.870666 105.999 274.91)" fill="#6C6C6C"/>
<rect width="56.3101" height="2.67883" rx="1.33941" transform="matrix(0.861257 -0.50817 0.491874 0.870666 108.964 280.158)" fill="#6C6C6C"/>
<rect width="21.1991" height="2.67883" rx="1.33941" transform="matrix(0.861257 -0.50817 0.491874 0.870666 141.839 266.98)" fill="#6C6C6C"/>
<rect width="43.0606" height="2.67883" rx="1.33941" transform="matrix(0.861257 0.50817 -0.491874 0.870666 332.917 246.295)" fill="#6C6C6C"/>
<rect width="56.3101" height="2.67883" rx="1.33941" transform="matrix(0.861257 0.50817 -0.491874 0.870666 329.952 251.543)" fill="#6C6C6C"/>
<rect width="21.1991" height="2.67883" rx="1.33941" transform="matrix(0.861257 0.50817 -0.491874 0.870666 357.557 274.05)" fill="#6C6C6C"/>
</svg>
