<svg width="492" height="535" viewBox="0 0 492 535" fill="none" xmlns="http://www.w3.org/2000/svg">
<ellipse cx="245.239" cy="527.579" rx="245.239" ry="7.25395" fill="#092342"/>
<path d="M259.027 26.6613L136.407 3.7998L84.374 174.045L350.602 211.933L363.372 188.759L259.027 26.6613Z" fill="#092342"/>
<path d="M259.027 26.6613L136.407 3.7998L84.374 174.045L350.602 211.933L363.372 188.759L259.027 26.6613Z" stroke="white" stroke-width="5"/>
<path fill-rule="evenodd" clip-rule="evenodd" d="M246.863 158.456C248.991 159.802 251.785 159.697 254.694 158.433L271.577 179.647C320.467 250.225 351.311 290.61 409.123 353.291C425.542 383.38 432.997 401.617 439.641 432.096L435.237 455.32C422.198 483.798 419.163 499.322 420.054 525.772C417.488 526.46 416.041 527.24 416.041 528.066C416.041 530.856 432.551 533.118 452.919 533.118C473.286 533.118 489.797 530.856 489.797 528.066C489.797 527.418 488.905 526.798 487.282 526.228C488.223 499.5 485.228 483.962 472.115 455.32L469.211 440.011L470.767 357.563C470.774 357.167 470.664 356.777 470.45 356.444L443.972 315.254C442.893 313.575 440.29 314.339 440.29 316.335V360.589L418.828 333.512L418.772 331.478C369.849 262.586 339.107 222.737 285.521 165.328L267.88 143.072C270.176 136.666 269.556 130.704 265.885 128.382C261.11 125.362 252.98 129.646 247.728 137.951C242.475 146.255 242.088 155.436 246.863 158.456ZM440.29 428.678L440.288 428.686V391.64L440.29 391.642V428.678Z" fill="#873856"/>
<path fill-rule="evenodd" clip-rule="evenodd" d="M247.425 134.382L468.719 413.695L469.827 354.961C469.834 354.565 469.724 354.176 469.509 353.842L443.032 312.652C441.952 310.973 439.349 311.738 439.349 313.734V357.987L417.888 330.911L417.832 328.876C368.91 259.986 338.167 220.136 284.582 162.728L266.94 140.471C269.236 134.065 268.615 128.103 264.945 125.781C260.359 122.88 252.679 126.717 247.425 134.382ZM436.186 530.031C440.973 530.342 446.327 530.516 451.978 530.516C472.346 530.516 488.856 528.254 488.856 525.464C488.856 524.816 487.965 524.197 486.342 523.627C487.283 496.899 484.288 481.361 471.175 452.719L469.086 441.707C454.429 452.243 438.513 477.564 436.186 530.031Z" fill="#D35C58"/>
<path d="M254.423 156.52L255.597 155.586L254.88 154.686L253.825 155.144L254.423 156.52ZM246.593 156.543L245.791 157.811L246.593 156.543ZM271.306 177.734L272.539 176.88L272.511 176.839L272.48 176.8L271.306 177.734ZM408.852 351.378L410.169 350.66L410.08 350.497L409.955 350.361L408.852 351.378ZM439.371 430.183L440.844 430.463L440.901 430.162L440.836 429.864L439.371 430.183ZM434.966 453.407L436.33 454.032L436.406 453.866L436.44 453.687L434.966 453.407ZM419.784 523.859L420.172 525.307L421.323 524.999L421.283 523.808L419.784 523.859ZM487.011 524.315L485.512 524.263L485.473 525.366L486.515 525.731L487.011 524.315ZM471.844 453.407L470.371 453.687L470.405 453.866L470.48 454.032L471.844 453.407ZM468.941 438.098L467.441 438.07L467.438 438.225L467.467 438.378L468.941 438.098ZM470.508 355.042L472.008 355.07L472.016 354.615L471.77 354.231L470.508 355.042ZM440.019 307.612L441.281 306.801L438.519 302.505V307.612H440.019ZM440.019 358.676L438.844 359.607L441.519 362.983V358.676H440.019ZM418.557 331.599L417.058 331.64L417.072 332.139L417.382 332.531L418.557 331.599ZM418.502 329.565L420.001 329.523L419.989 329.068L419.725 328.696L418.502 329.565ZM285.25 163.415L284.075 164.347L284.112 164.394L284.154 164.438L285.25 163.415ZM267.61 141.159L266.198 140.653L265.917 141.438L266.434 142.091L267.61 141.159ZM265.614 126.469L264.812 127.737V127.737L265.614 126.469ZM247.457 136.037L248.725 136.839L247.457 136.037ZM440.018 426.773H438.518L441.491 427.053L440.018 426.773ZM440.019 426.765L441.493 427.045L441.519 426.906V426.765H440.019ZM440.018 389.727L441.192 388.795L438.518 385.424V389.727H440.018ZM440.019 389.729H441.519V389.206L441.194 388.797L440.019 389.729ZM253.825 155.144C251.172 156.298 248.947 156.257 247.395 155.275L245.791 157.811C248.495 159.521 251.857 159.271 255.021 157.896L253.825 155.144ZM272.48 176.8L255.597 155.586L253.25 157.454L270.133 178.668L272.48 176.8ZM409.955 350.361C352.201 287.744 321.4 247.416 272.539 176.88L270.073 178.588C318.992 249.208 349.879 289.651 407.75 352.395L409.955 350.361ZM440.836 429.864C434.155 399.216 426.64 380.844 410.169 350.66L407.535 352.097C423.902 382.09 431.298 400.193 437.905 430.503L440.836 429.864ZM436.44 453.687L440.844 430.463L437.897 429.904L433.493 453.128L436.44 453.687ZM421.283 523.808C420.84 510.654 421.375 500.291 423.619 489.704C425.864 479.109 429.834 468.221 436.33 454.032L433.602 452.783C427.06 467.071 422.993 478.184 420.684 489.083C418.373 499.989 417.837 510.614 418.285 523.909L421.283 523.808ZM417.27 526.153C417.27 526.415 417.149 526.549 417.163 526.533C417.186 526.507 417.289 526.408 417.55 526.261C418.071 525.968 418.934 525.64 420.172 525.307L419.395 522.41C418.067 522.766 416.923 523.172 416.079 523.647C415.657 523.884 415.238 524.178 414.91 524.552C414.573 524.936 414.27 525.477 414.27 526.153H417.27ZM452.648 529.705C442.511 529.705 433.362 529.141 426.775 528.239C423.47 527.786 420.872 527.256 419.13 526.692C418.249 526.407 417.676 526.14 417.354 525.924C416.963 525.663 417.27 525.714 417.27 526.153H414.27C414.27 527.289 415.093 528.021 415.685 528.417C416.345 528.859 417.221 529.227 418.206 529.546C420.197 530.191 422.999 530.75 426.368 531.211C433.128 532.137 442.418 532.705 452.648 532.705V529.705ZM488.026 526.153C488.026 525.714 488.333 525.663 487.942 525.924C487.62 526.14 487.047 526.407 486.166 526.692C484.424 527.256 481.826 527.786 478.521 528.239C471.934 529.141 462.785 529.705 452.648 529.705V532.705C462.878 532.705 472.168 532.137 478.928 531.211C482.297 530.75 485.099 530.191 487.09 529.546C488.075 529.227 488.951 528.859 489.611 528.417C490.203 528.021 491.026 527.289 491.026 526.153H488.026ZM486.515 525.731C487.271 525.996 487.744 526.237 488 526.421C488.301 526.639 488.026 526.565 488.026 526.153H491.026C491.026 525.092 490.305 524.385 489.755 523.988C489.159 523.558 488.375 523.204 487.507 522.9L486.515 525.731ZM488.51 524.368C488.983 510.935 488.47 500.237 486.166 489.27C483.864 478.312 479.788 467.154 473.208 452.783L470.48 454.032C477.014 468.302 480.992 479.234 483.23 489.887C485.467 500.532 485.98 510.967 485.512 524.263L488.51 524.368ZM473.318 453.128L470.415 437.819L467.467 438.378L470.371 453.687L473.318 453.128ZM469.008 355.014L467.441 438.07L470.441 438.126L472.008 355.07L469.008 355.014ZM438.757 308.424L469.246 355.853L471.77 354.231L441.281 306.801L438.757 308.424ZM441.519 358.676V307.612H438.519V358.676H441.519ZM417.382 332.531L438.844 359.607L441.195 357.744L419.733 330.667L417.382 332.531ZM417.002 329.606L417.058 331.64L420.057 331.558L420.001 329.523L417.002 329.606ZM284.154 164.438C337.679 221.782 368.38 261.575 417.279 330.433L419.725 328.696C370.778 259.771 339.993 219.865 286.347 162.391L284.154 164.438ZM266.434 142.091L284.075 164.347L286.426 162.483L268.785 140.227L266.434 142.091ZM264.812 127.737C266.154 128.586 267.071 130.178 267.361 132.471C267.652 134.763 267.287 137.614 266.198 140.653L269.022 141.665C270.228 138.299 270.701 134.965 270.338 132.094C269.974 129.224 268.745 126.674 266.416 125.201L264.812 127.737ZM248.725 136.839C251.237 132.868 254.4 129.922 257.414 128.333C260.47 126.723 263.072 126.636 264.812 127.737L266.416 125.201C263.381 123.282 259.531 123.827 256.016 125.679C252.458 127.554 248.93 130.902 246.19 135.236L248.725 136.839ZM247.395 155.275C245.654 154.175 244.618 151.786 244.763 148.335C244.907 144.931 246.213 140.811 248.725 136.839L246.19 135.236C243.449 139.569 241.935 144.191 241.766 148.209C241.599 152.179 242.756 155.891 245.791 157.811L247.395 155.275ZM441.491 427.053L441.493 427.045L438.545 426.485L438.544 426.493L441.491 427.053ZM438.518 389.727V426.773H441.518V389.727H438.518ZM441.194 388.797L441.192 388.795L438.843 390.66L438.844 390.662L441.194 388.797ZM441.519 426.765V389.729H438.519V426.765H441.519Z" fill="#D35C58"/>
<path d="M442.657 436.578L429 385.203L434.5 379.5L444.608 392.356L442.657 436.578Z" fill="#873856"/>
</svg>
