<svg width="257" height="344" viewBox="0 0 257 344" fill="none" xmlns="http://www.w3.org/2000/svg">
<rect y="122" width="256.89" height="36.0214" rx="18.0107" fill="white"/>
<rect x="4" y="284" width="59" height="59" fill="white"/>
<rect x="193" y="285" width="59" height="59" fill="white"/>
<rect x="6.5" y="189.5" width="243" height="65" rx="10.5" stroke="white" stroke-width="5"/>
<mask id="path-5-inside-1" fill="white">
<path fill-rule="evenodd" clip-rule="evenodd" d="M36.0322 60.0644C52.6185 60.0644 66.0644 46.6185 66.0644 30.0322C66.0644 13.4459 52.6185 0 36.0322 0C19.4459 0 6 13.4459 6 30.0322C6 46.6185 19.4459 60.0644 36.0322 60.0644ZM36.0322 48.5677C46.2691 48.5677 54.5677 40.2691 54.5677 30.0322C54.5677 19.7953 46.2691 11.4967 36.0322 11.4967C25.7953 11.4967 17.4967 19.7953 17.4967 30.0322C17.4967 40.2691 25.7953 48.5677 36.0322 48.5677Z"/>
</mask>
<path fill-rule="evenodd" clip-rule="evenodd" d="M36.0322 60.0644C52.6185 60.0644 66.0644 46.6185 66.0644 30.0322C66.0644 13.4459 52.6185 0 36.0322 0C19.4459 0 6 13.4459 6 30.0322C6 46.6185 19.4459 60.0644 36.0322 60.0644ZM36.0322 48.5677C46.2691 48.5677 54.5677 40.2691 54.5677 30.0322C54.5677 19.7953 46.2691 11.4967 36.0322 11.4967C25.7953 11.4967 17.4967 19.7953 17.4967 30.0322C17.4967 40.2691 25.7953 48.5677 36.0322 48.5677Z" fill="white"/>
<path d="M61.0644 30.0322C61.0644 43.8571 49.8571 55.0644 36.0322 55.0644V65.0644C55.38 65.0644 71.0644 49.38 71.0644 30.0322H61.0644ZM36.0322 5C49.8571 5 61.0644 16.2073 61.0644 30.0322H71.0644C71.0644 10.6845 55.38 -5 36.0322 -5V5ZM11 30.0322C11 16.2073 22.2073 5 36.0322 5V-5C16.6845 -5 1 10.6845 1 30.0322H11ZM36.0322 55.0644C22.2073 55.0644 11 43.8571 11 30.0322H1C1 49.38 16.6845 65.0644 36.0322 65.0644V55.0644ZM49.5677 30.0322C49.5677 37.5077 43.5077 43.5677 36.0322 43.5677V53.5677C49.0305 53.5677 59.5677 43.0305 59.5677 30.0322H49.5677ZM36.0322 16.4967C43.5077 16.4967 49.5677 22.5568 49.5677 30.0322H59.5677C59.5677 17.0339 49.0305 6.49672 36.0322 6.49672V16.4967ZM22.4967 30.0322C22.4967 22.5568 28.5568 16.4967 36.0322 16.4967V6.49672C23.0339 6.49672 12.4967 17.0339 12.4967 30.0322H22.4967ZM36.0322 43.5677C28.5568 43.5677 22.4967 37.5077 22.4967 30.0322H12.4967C12.4967 43.0305 23.0339 53.5677 36.0322 53.5677V43.5677Z" fill="white" mask="url(#path-5-inside-1)"/>
<mask id="path-7-inside-2" fill="white">
<path fill-rule="evenodd" clip-rule="evenodd" d="M189.861 37.1668C193.063 50.309 204.913 60.0645 219.041 60.0645C235.627 60.0645 249.073 46.6187 249.073 30.0323C249.073 13.5422 235.783 0.156216 219.329 0.00146484V11.499C229.433 11.6531 237.576 19.8917 237.576 30.0323C237.576 40.2692 229.278 48.5678 219.041 48.5678C211.332 48.5678 204.723 43.8622 201.928 37.1668H189.861Z"/>
</mask>
<path fill-rule="evenodd" clip-rule="evenodd" d="M189.861 37.1668C193.063 50.309 204.913 60.0645 219.041 60.0645C235.627 60.0645 249.073 46.6187 249.073 30.0323C249.073 13.5422 235.783 0.156216 219.329 0.00146484V11.499C229.433 11.6531 237.576 19.8917 237.576 30.0323C237.576 40.2692 229.278 48.5678 219.041 48.5678C211.332 48.5678 204.723 43.8622 201.928 37.1668H189.861Z" fill="white"/>
<path d="M189.861 37.1668V32.1668H183.497L185.003 38.3504L189.861 37.1668ZM219.329 0.00146484L219.376 -4.99831L214.329 -5.04578V0.00146484H219.329ZM219.329 11.499H214.329V16.4234L219.253 16.4984L219.329 11.499ZM201.928 37.1668L206.542 35.2408L205.259 32.1668H201.928V37.1668ZM185.003 38.3504C188.739 53.6804 202.554 65.0645 219.041 65.0645V55.0645C207.272 55.0645 197.388 46.9376 194.719 35.9831L185.003 38.3504ZM219.041 65.0645C238.389 65.0645 254.073 49.3801 254.073 30.0323H244.073C244.073 43.8572 232.866 55.0645 219.041 55.0645V65.0645ZM254.073 30.0323C254.073 10.7965 238.57 -4.81779 219.376 -4.99831L219.282 5.00124C232.995 5.13022 244.073 16.2879 244.073 30.0323H254.073ZM214.329 0.00146484V11.499H224.329V0.00146484H214.329ZM242.576 30.0323C242.576 17.1559 232.237 6.69529 219.406 6.4996L219.253 16.4984C226.63 16.6109 232.576 22.6276 232.576 30.0323H242.576ZM219.041 53.5678C232.039 53.5678 242.576 43.0306 242.576 30.0323H232.576C232.576 37.5078 226.516 43.5678 219.041 43.5678V53.5678ZM197.314 39.0927C200.859 47.5845 209.245 53.5678 219.041 53.5678V43.5678C213.42 43.5678 208.587 40.1399 206.542 35.2408L197.314 39.0927ZM201.928 32.1668H189.861V42.1668H201.928V32.1668Z" fill="white" mask="url(#path-7-inside-2)"/>
<mask id="path-9-inside-3" fill="white">
<path fill-rule="evenodd" clip-rule="evenodd" d="M107.149 11.7221C103.023 16.865 100.555 23.395 100.555 30.5014C100.555 47.0878 114.001 60.5337 130.587 60.5337C147.173 60.5337 160.619 47.0878 160.619 30.5014C160.619 13.9151 147.173 0.469238 130.587 0.469238C130.48 0.469238 130.374 0.469793 130.268 0.470899V11.9686C130.374 11.9668 130.48 11.9659 130.587 11.9659C140.824 11.9659 149.122 20.2646 149.122 30.5014C149.122 40.7383 140.824 49.037 130.587 49.037C120.35 49.037 112.051 40.7383 112.051 30.5014C112.051 26.1189 113.572 22.0917 116.115 18.9187L107.149 11.7221Z"/>
</mask>
<path fill-rule="evenodd" clip-rule="evenodd" d="M107.149 11.7221C103.023 16.865 100.555 23.395 100.555 30.5014C100.555 47.0878 114.001 60.5337 130.587 60.5337C147.173 60.5337 160.619 47.0878 160.619 30.5014C160.619 13.9151 147.173 0.469238 130.587 0.469238C130.48 0.469238 130.374 0.469793 130.268 0.470899V11.9686C130.374 11.9668 130.48 11.9659 130.587 11.9659C140.824 11.9659 149.122 20.2646 149.122 30.5014C149.122 40.7383 140.824 49.037 130.587 49.037C120.35 49.037 112.051 40.7383 112.051 30.5014C112.051 26.1189 113.572 22.0917 116.115 18.9187L107.149 11.7221Z" fill="white"/>
<path d="M107.149 11.7221L110.279 7.82276L106.379 4.69235L103.249 8.59321L107.149 11.7221ZM130.268 0.470899L130.216 -4.52883L125.268 -4.47731V0.470899H130.268ZM130.268 11.9686H125.268V17.0538L130.352 16.9679L130.268 11.9686ZM116.115 18.9187L120.017 22.0455L123.141 18.1468L119.245 15.0194L116.115 18.9187ZM103.249 8.59321C98.4368 14.5914 95.5547 22.2167 95.5547 30.5014H105.555C105.555 24.5733 107.609 19.1386 111.049 14.851L103.249 8.59321ZM95.5547 30.5014C95.5547 49.8492 111.239 65.5337 130.587 65.5337V55.5337C116.762 55.5337 105.555 44.3264 105.555 30.5014H95.5547ZM130.587 65.5337C149.935 65.5337 165.619 49.8492 165.619 30.5014H155.619C155.619 44.3264 144.412 55.5337 130.587 55.5337V65.5337ZM165.619 30.5014C165.619 11.1537 149.935 -4.53076 130.587 -4.53076V5.46924C144.412 5.46924 155.619 16.6765 155.619 30.5014H165.619ZM130.587 -4.53076C130.463 -4.53076 130.339 -4.53012 130.216 -4.52883L130.32 5.47063C130.409 5.4697 130.498 5.46924 130.587 5.46924V-4.53076ZM125.268 0.470899V11.9686H135.268V0.470899H125.268ZM130.587 6.96595C130.452 6.96595 130.318 6.96708 130.183 6.96935L130.352 16.9679C130.43 16.9666 130.508 16.9659 130.587 16.9659V6.96595ZM154.122 30.5014C154.122 17.5031 143.585 6.96595 130.587 6.96595V16.9659C138.062 16.9659 144.122 23.026 144.122 30.5014H154.122ZM130.587 54.037C143.585 54.037 154.122 43.4997 154.122 30.5014H144.122C144.122 37.9769 138.062 44.037 130.587 44.037V54.037ZM107.051 30.5014C107.051 43.4997 117.589 54.037 130.587 54.037V44.037C123.112 44.037 117.051 37.9769 117.051 30.5014H107.051ZM112.214 15.7919C108.986 19.8198 107.051 24.9416 107.051 30.5014H117.051C117.051 27.2963 118.159 24.3635 120.017 22.0455L112.214 15.7919ZM119.245 15.0194L110.279 7.82276L104.019 15.6214L112.986 22.818L119.245 15.0194Z" fill="white" mask="url(#path-9-inside-3)"/>
</svg>
