<svg width="85" height="477" viewBox="0 0 85 477" fill="none" xmlns="http://www.w3.org/2000/svg">
<path d="M14.5285 21.3442V41.3629H18.4758V34.596H63.5884V41.3629H67.8177V21.3442L55.1298 2.17139H26.3705L14.5285 21.3442Z" stroke="white" stroke-width="3" stroke-linejoin="round"/>
<path d="M11.4269 13.4496H70.9191" stroke="white" stroke-width="3" stroke-linecap="round"/>
<path d="M14.5285 23.0359H25.8066" stroke="white" stroke-width="3" stroke-linecap="round"/>
<path d="M55.6937 23.0359H66.9719" stroke="white" stroke-width="3" stroke-linecap="round"/>
<path d="M15.9382 79.7085C15.9382 79.7085 4.02012 75.9826 1.84057 69.5582C-1.87724 58.5997 33.1877 66.816 28.3442 56.3064C26.2494 51.7611 18.4758 48.1298 18.4758 48.1298" stroke="white" stroke-width="3" stroke-linecap="round" stroke-linejoin="round"/>
<path d="M63.3012 80.5545C63.3012 80.5545 51.3831 76.8285 49.2035 70.4042C45.4857 59.4457 80.5507 67.6619 75.7072 57.1524C73.6123 52.607 65.8388 48.9757 65.8388 48.9757" stroke="white" stroke-width="3" stroke-linecap="round" stroke-linejoin="round"/>
<path d="M7.20288 208.561C11.8026 208.561 10.9317 212.509 15.5313 212.509C20.131 212.509 19.2601 208.561 23.8598 208.561C28.4595 208.561 27.5886 212.509 32.1883 212.509C36.788 212.509 35.9171 208.561 40.5168 208.561C45.1164 208.561 44.2455 212.509 48.8452 212.509C53.4449 212.509 52.574 208.561 57.1737 208.561" stroke="white" stroke-width="3" stroke-linecap="round"/>
<circle cx="32.8605" cy="181.212" r="23.5938" stroke="white" stroke-width="3"/>
<circle cx="33.1424" cy="181.494" r="10.9059" stroke="white" stroke-width="3"/>
<path d="M55.632 198.734C55.0191 198.237 56.2356 193.517 57.2654 192.249C58.2951 190.981 60.1099 190.748 61.3188 191.729C62.5278 192.711 62.673 194.535 61.6433 195.803C60.6135 197.072 56.3544 199.321 55.632 198.734Z" fill="white"/>
<path d="M58.1344 201.131C58.3427 200.369 63.1519 199.58 64.7277 200.011C66.3036 200.442 67.2481 202.009 66.8373 203.511C66.4264 205.013 64.8159 205.881 63.24 205.45C61.6641 205.019 57.8889 202.028 58.1344 201.131Z" fill="white"/>
<mask id="path-12-inside-1" fill="white">
<path fill-rule="evenodd" clip-rule="evenodd" d="M53.2934 326.913C55.8839 322.964 57.3905 318.241 57.3905 313.166C57.3905 299.307 46.1556 288.072 32.2967 288.072C18.4377 288.072 7.20285 299.307 7.20285 313.166C7.20285 318.241 8.7095 322.964 11.2999 326.913C8.70948 328.066 7.20282 329.446 7.20282 330.929C7.20282 334.971 18.4018 338.249 32.2302 338.26C32.2524 338.26 32.2745 338.26 32.2967 338.26C32.3189 338.26 32.341 338.26 32.3632 338.26C46.1915 338.249 57.3905 334.971 57.3905 330.929C57.3905 329.446 55.8839 328.067 53.2934 326.913Z"/>
</mask>
<path d="M53.2934 326.913L50.7851 325.267L48.8493 328.218L52.0731 329.654L53.2934 326.913ZM11.2999 326.913L12.5203 329.654L15.7441 328.218L13.8083 325.267L11.2999 326.913ZM32.2302 338.26L32.238 335.26L32.2325 335.26L32.2302 338.26ZM32.3632 338.26L32.3609 335.26L32.3554 335.26L32.3632 338.26ZM54.3905 313.166C54.3905 317.639 53.0646 321.793 50.7851 325.267L55.8018 328.559C58.7032 324.136 60.3905 318.844 60.3905 313.166H54.3905ZM32.2967 291.072C44.4988 291.072 54.3905 300.964 54.3905 313.166H60.3905C60.3905 297.65 47.8125 285.072 32.2967 285.072V291.072ZM10.2028 313.166C10.2028 300.964 20.0946 291.072 32.2967 291.072V285.072C16.7809 285.072 4.20285 297.65 4.20285 313.166H10.2028ZM13.8083 325.267C11.5288 321.793 10.2028 317.639 10.2028 313.166H4.20285C4.20285 318.844 5.8902 324.136 8.79156 328.559L13.8083 325.267ZM10.2028 330.929C10.2028 331.282 10.0107 331.296 10.3608 330.959C10.7161 330.616 11.3968 330.154 12.5203 329.654L10.0796 324.172C8.6126 324.826 7.24473 325.63 6.19911 326.637C5.14825 327.648 4.20282 329.093 4.20282 330.929H10.2028ZM32.2325 335.26C25.5199 335.255 19.5596 334.453 15.374 333.227C13.2614 332.609 11.7705 331.93 10.8757 331.311C9.88973 330.629 10.2028 330.45 10.2028 330.929H4.20282C4.20282 333.429 5.91579 335.176 7.46179 336.245C9.09892 337.378 11.272 338.278 13.6877 338.985C18.5588 340.412 25.1121 341.254 32.2279 341.26L32.2325 335.26ZM32.2967 335.26C32.2773 335.26 32.2577 335.26 32.238 335.26L32.2225 341.26C32.247 341.26 32.2718 341.26 32.2967 341.26V335.26ZM32.3554 335.26C32.3357 335.26 32.3161 335.26 32.2967 335.26V341.26C32.3216 341.26 32.3464 341.26 32.3709 341.26L32.3554 335.26ZM54.3905 330.929C54.3905 330.45 54.7036 330.629 53.7177 331.311C52.8228 331.93 51.3319 332.609 49.2193 333.227C45.0338 334.453 39.0735 335.255 32.3609 335.26L32.3655 341.26C39.4813 341.254 46.0346 340.412 50.9056 338.985C53.3213 338.278 55.4944 337.378 57.1315 336.245C58.6775 335.176 60.3905 333.429 60.3905 330.929H54.3905ZM52.0731 329.654C53.1965 330.154 53.8772 330.616 54.2325 330.959C54.5826 331.296 54.3905 331.282 54.3905 330.929H60.3905C60.3905 329.093 59.4451 327.648 58.3942 326.637C57.3486 325.63 55.9808 324.826 54.5138 324.172L52.0731 329.654Z" fill="white" mask="url(#path-12-inside-1)"/>
<circle cx="32.5786" cy="313.448" r="10.9059" stroke="white" stroke-width="3"/>
<circle cx="26.0938" cy="451.887" r="23.5938" stroke="white" stroke-width="3"/>
<circle cx="26.376" cy="452.169" r="10.9059" stroke="white" stroke-width="3"/>
<path d="M39.8613 424.804L45.1671 413.823L50.2787 427.979L65.6581 426.38L57.3886 439.647L69.2065 451.466L55.8327 451.112" stroke="white" stroke-width="3" stroke-linecap="round"/>
</svg>
