<svg width="672" height="500" viewBox="0 0 672 500" fill="none" xmlns="http://www.w3.org/2000/svg">
<path d="M671.5 498.5L478.502 500C214.233 500 0 492.437 0 483.107C0 473.777 394.095 440 658.365 440L671.5 498.5Z" fill="#092342"/>
<ellipse cx="254.312" cy="373.781" rx="123.188" ry="114.469" fill="#092342"/>
<ellipse cx="239.969" cy="380.25" rx="69.4688" ry="73.125" fill="white"/>
<path d="M73.75 136.969C244.525 29.4187 462.531 4.40618 550.188 5.34368L651.719 435.938H371.594C367.094 302.737 293.969 257.625 241.938 256.219C147.438 261.281 126.156 363.844 133.938 414.281C98.1625 412.256 64.8438 387 52.6562 374.625L41.125 305.156C46.3 297.731 45.5312 202.5 44.5 155.812L73.75 136.969Z" fill="white" stroke="white" stroke-width="10"/>
<path d="M606.156 256.943C395.5 219.375 131.688 181.688 45.625 181.688C234.344 199.258 464.406 245.037 611.781 274.1L606.156 256.943Z" fill="#D35C58" stroke="#D35C58" stroke-width="10"/>
<path d="M601.094 224.982C283 182.5 67.2188 165.507 45 166C106.031 169.938 434.688 203.581 604 239L601.094 224.982Z" fill="#F0D27E" stroke="#F0D27E" stroke-width="10"/>
<path d="M593 196C421.156 176.031 144.625 146.25 45.3438 153C90.9062 152.121 445.906 186.062 596.375 210.625L593 196Z" fill="#4C7D77" stroke="#4C7D77" stroke-width="10"/>
<path d="M520.375 30.9376C379.075 27.3376 216.625 86.8126 153.062 117C176.238 154.8 414.344 159.938 530.5 157.781L520.375 30.9376Z" fill="#092342" stroke="#092342" stroke-width="20"/>
<path d="M367 390H644.486L657 440H373.054L367 390Z" fill="#092342" stroke="black"/>
<path d="M73.75 136.713C244.525 29.1626 462.531 4.15008 550.188 5.08758L651.719 435.681H371.594C367.094 302.481 293.969 257.369 241.938 255.963C147.438 261.025 126.156 363.588 133.938 414.025C98.1625 412 64.8438 386.744 52.6562 374.369L41.125 304.9C46.3 297.475 45.5312 202.244 44.5 155.556L73.75 136.713Z" stroke="white" stroke-width="10"/>
</svg>
