<?xml version="1.0" encoding="UTF-8" standalone="no" ?>
<!DOCTYPE svg PUBLIC "-//W3C//DTD SVG 1.1//EN" "http://www.w3.org/Graphics/SVG/1.1/DTD/svg11.dtd">
<svg xmlns="http://www.w3.org/2000/svg" xmlns:xlink="http://www.w3.org/1999/xlink" version="1.1" width="500" height="219.6778" viewBox="0 0 500 219.6778" xml:space="preserve">
<desc>Created with Fabric.js 4.6.0</desc>
<defs>
</defs>
<g transform="matrix(6.4 0 0 6.4 249.81 109.74)" id="6G5ye0F6_wsczyv4McUBY"  >
<g style="" vector-effect="non-scaling-stroke"   >
		<g transform="matrix(1 0 0 1 -16.7 11.65)" id="rISqTTrVoeJzZK235g32y"  >
<path style="stroke: none; stroke-width: 1; stroke-dasharray: none; stroke-linecap: butt; stroke-dashoffset: 0; stroke-linejoin: miter; stroke-miterlimit: 4; fill: rgb(0,0,0); fill-rule: nonzero; opacity: 1;" vector-effect="non-scaling-stroke"  transform=" translate(-5, -5)" d="M 0 5 C 0 2.23858 2.23858 0 5 0 C 7.76142 0 10 2.23858 10 5 C 10 7.76142 7.76142 10 5 10 C 2.23858 10 0 7.76142 0 5 z" stroke-linecap="round" />
</g>
		<g transform="matrix(1 0 0 -1 16.7 11.65)" id="VfBoh3ArG7_bpoDIGboHm"  >
<path style="stroke: none; stroke-width: 1; stroke-dasharray: none; stroke-linecap: butt; stroke-dashoffset: 0; stroke-linejoin: miter; stroke-miterlimit: 4; fill: rgb(0,0,0); fill-rule: nonzero; opacity: 1;" vector-effect="non-scaling-stroke"  transform=" translate(-5, -5)" d="M 0 5 C 0 2.23858 2.23858 0 5 0 C 7.76142 0 10 2.23858 10 5 C 10 7.76142 7.76142 10 5 10 C 2.23858 10 0 7.76142 0 5 z" stroke-linecap="round" />
</g>
		<g transform="matrix(1 0 0 1 0.2 -9.39)" id="EjmL5klOcu5o9Mduv2aPz"  >
<path style="stroke: rgb(0,0,0); stroke-width: 3; stroke-dasharray: none; stroke-linecap: round; stroke-dashoffset: 0; stroke-linejoin: miter; stroke-miterlimit: 4; fill: none; fill-rule: nonzero; opacity: 1;" vector-effect="non-scaling-stroke"  transform=" translate(-39.18, -17.46)" d="M 29.9471 22.8251 L 26.4778 16.816 L 34.773 18.9391 L 38.9404 11.1917 L 42.5373 19.3264 L 51.8783 17.5467 L 47.4339 23.726" stroke-linecap="round" />
</g>
		<g transform="matrix(1 0 0 1 -20 0.65)" id="A3xdFFJtD6UFKE0cMyWxY"  >
<path style="stroke: none; stroke-width: 1; stroke-dasharray: none; stroke-linecap: butt; stroke-dashoffset: 0; stroke-linejoin: miter; stroke-miterlimit: 4; fill: rgb(0,0,0); fill-rule: evenodd; opacity: 1;" vector-effect="non-scaling-stroke"  transform=" translate(-18.98, -27.5)" d="M 2.22438 16.0203 C 1.78945 15.9478 1.34466 16.0704 1.00822 16.3554 C 0.671784 16.6404 0.477783 17.059 0.477783 17.4999 L 0.477783 37.4999 C 0.477783 38.3283 1.14936 38.9999 1.97778 38.9999 L 16.0542 38.9999 C 16.0039 38.6739 15.9778 38.34 15.9778 37.9999 C 15.9778 37.3021 16.0877 36.63 16.2913 35.9999 L 3.47778 35.9999 L 3.47778 19.2706 L 13.1488 20.8824 L 17.7888 26.9145 C 17.9994 27.1882 18.298 27.3809 18.6342 27.46 L 34.4778 31.1879 L 34.4778 35.9999 L 28.6643 35.9999 C 28.8678 36.63 28.9778 37.3021 28.9778 37.9999 C 28.9778 38.34 28.9517 38.6739 28.9013 38.9999 L 35.9778 38.9999 C 36.8062 38.9999 37.4778 38.3283 37.4778 37.4999 L 37.4778 29.9999 C 37.4778 29.3038 36.9989 28.6992 36.3213 28.5398 L 19.8411 24.6621 L 15.1667 18.5853 C 14.9354 18.2846 14.5987 18.0827 14.2244 18.0203 L 2.22438 16.0203 Z" stroke-linecap="round" />
</g>
		<g transform="matrix(1 0 0 1 20 0.65)" id="-oEiY9vnNqTKmBL3KEhnX"  >
<path style="stroke: none; stroke-width: 1; stroke-dasharray: none; stroke-linecap: butt; stroke-dashoffset: 0; stroke-linejoin: miter; stroke-miterlimit: 4; fill: rgb(0,0,0); fill-rule: evenodd; opacity: 1;" vector-effect="non-scaling-stroke"  transform=" translate(-58.98, -27.5)" d="M 75.7312 16.0203 C 76.1661 15.9478 76.6109 16.0704 76.9473 16.3554 C 77.2838 16.6404 77.4778 17.059 77.4778 17.4999 L 77.4778 37.4999 C 77.4778 38.3283 76.8062 38.9999 75.9778 38.9999 L 61.9013 38.9999 C 61.9517 38.6739 61.9778 38.34 61.9778 37.9999 C 61.9778 37.3021 61.8678 36.63 61.6643 35.9999 L 74.4778 35.9999 L 74.4778 19.2706 L 64.8067 20.8824 L 60.1667 26.9145 C 59.9561 27.1882 59.6575 27.3809 59.3213 27.46 L 43.4778 31.1879 L 43.4778 35.9999 L 49.2913 35.9999 C 49.0877 36.63 48.9778 37.3021 48.9778 37.9999 C 48.9778 38.34 49.0039 38.6739 49.0542 38.9999 L 41.9778 38.9999 C 41.1494 38.9999 40.4778 38.3283 40.4778 37.4999 L 40.4778 29.9999 C 40.4778 29.3038 40.9566 28.6992 41.6342 28.5398 L 58.1144 24.6621 L 62.7888 18.5853 C 63.0202 18.2846 63.3569 18.0827 63.7312 18.0203 L 75.7312 16.0203 Z" stroke-linecap="round" />
</g>
</g>
</g>
</svg>