<svg width="43" height="53" viewBox="0 0 43 53" fill="none" xmlns="http://www.w3.org/2000/svg">
<path fill-rule="evenodd" clip-rule="evenodd" d="M37.7208 5.16155C37.2131 5.00889 36.6344 4.85664 35.9836 4.70912C32.4448 3.907 27.4085 3.38403 21.7429 3.38403C16.0773 3.38403 11.0409 3.907 7.50216 4.70912C6.85134 4.85664 6.27268 5.00889 5.76491 5.16155C6.27268 5.31422 6.85134 5.46647 7.50216 5.61399C11.0409 6.4161 16.0773 6.93907 21.7429 6.93907C27.4085 6.93907 32.4448 6.4161 35.9836 5.61399C36.6344 5.46647 37.2131 5.31422 37.7208 5.16155ZM41.3232 6.93329C42.289 6.38543 42.8202 5.78755 42.8202 5.16155C42.8202 2.523 33.3835 0.384033 21.7429 0.384033C10.1022 0.384033 0.665588 2.523 0.665588 5.16155C0.665588 5.73147 1.10586 6.27809 1.91351 6.78488V24.0409C0.986578 24.5792 0.477844 25.1649 0.477844 25.7775C0.477844 26.3902 0.986578 26.9759 1.91351 27.5141V46.0409C0.986578 46.5792 0.477844 47.1649 0.477844 47.7775C0.477844 50.4161 9.91447 52.555 21.5551 52.555C33.1958 52.555 42.6324 50.4161 42.6324 47.7775C42.6324 47.1933 42.1699 46.6337 41.3232 46.1163V27.4388C42.1699 26.9214 42.6324 26.3617 42.6324 25.7775C42.6324 25.1934 42.1699 24.6337 41.3232 24.1163V6.93329ZM38.3232 25.5909V8.11154C34.4643 9.22434 28.4718 9.93907 21.7429 9.93907C14.8674 9.93907 8.76091 9.19288 4.91351 8.0383V22.8453C4.93489 22.8391 4.95633 22.8329 4.97784 22.8267V23V25.5L5.70045 25.7409C5.6589 25.7531 5.61781 25.7653 5.57716 25.7775C6.08493 25.9302 6.66359 26.0825 7.31441 26.23C10.8532 27.0321 15.8895 27.5551 21.5551 27.5551C27.2207 27.5551 32.2571 27.0321 35.7958 26.23C36.4467 26.0825 37.0253 25.9302 37.5331 25.7775L37.5111 25.771L38.3232 25.5909ZM4.91351 28.7098V47.6089L5.58203 47.7761L5.57716 47.7775C6.08493 47.9302 6.66359 48.0824 7.31441 48.2299C10.8532 49.0321 15.8895 49.555 21.5551 49.555C27.2207 49.555 32.2571 49.0321 35.7958 48.2299C36.4467 48.0824 37.0253 47.9302 37.5331 47.7775L37.4989 47.7673L38.3232 47.5793V28.6726C34.4725 29.8167 28.3942 30.5551 21.5551 30.5551C14.7905 30.5551 8.77017 29.8327 4.91351 28.7098Z" fill="white"/>
</svg>
