<svg width="63" height="59" viewBox="0 0 63 59" fill="none" xmlns="http://www.w3.org/2000/svg">
<path d="M2.20288 52.5613C6.80257 52.5613 5.93166 56.5086 10.5313 56.5086C15.131 56.5086 14.2601 52.5613 18.8598 52.5613C23.4595 52.5613 22.5886 56.5086 27.1883 56.5086C31.788 56.5086 30.9171 52.5613 35.5168 52.5613C40.1164 52.5613 39.2455 56.5086 43.8452 56.5086C48.4449 56.5086 47.574 52.5613 52.1737 52.5613" stroke="white" stroke-width="3" stroke-linecap="round"/>
<circle cx="27.8605" cy="25.2119" r="23.5938" stroke="white" stroke-width="3"/>
<circle cx="28.1424" cy="25.4937" r="10.9059" stroke="white" stroke-width="3"/>
<path d="M50.632 42.7341C50.0191 42.2365 51.2356 37.5173 52.2654 36.2489C53.2951 34.9806 55.1099 34.748 56.3188 35.7295C57.5278 36.7109 57.673 38.5348 56.6433 39.8032C55.6135 41.0716 51.3544 43.3206 50.632 42.7341Z" fill="white"/>
<path d="M53.1344 45.1307C53.3427 44.3692 58.1519 43.5799 59.7277 44.011C61.3036 44.442 62.2481 46.0091 61.8373 47.5111C61.4264 49.0131 59.8159 49.8813 58.24 49.4503C56.6641 49.0192 52.8889 46.0282 53.1344 45.1307Z" fill="white"/>
</svg>
