<svg width="338" height="357" viewBox="0 0 338 357" fill="none" xmlns="http://www.w3.org/2000/svg">
<rect x="74.6089" y="0.710938" width="256.89" height="36.0214" rx="18.0107" fill="#50A6C3"/>
<rect x="0.707031" y="81.4923" width="256.89" height="36.0214" rx="18.0107" fill="white"/>
<rect x="222.521" y="156.994" width="114.75" height="43.3976" rx="21.6988" fill="#50A6C3"/>
<circle cx="253.523" cy="178.892" r="9.40446" fill="#DBDBDB"/>
<circle cx="280.251" cy="178.892" r="9.40446" fill="#C4C4C4"/>
<circle cx="306.98" cy="178.892" r="9.40446" fill="#6C6C6C"/>
<path fill-rule="evenodd" clip-rule="evenodd" d="M167.5 240C157.189 240.032 147.23 243.745 139.422 250.468C133.438 255.616 129.102 262.324 127.984 269.055C114.891 271.941 105 283.329 105 297.08C105 313.055 118.344 325.8 134.539 325.8H163.594V284.515L146.828 301.261C146.095 301.994 145.1 302.405 144.062 302.405C143.025 302.405 142.03 301.994 141.297 301.261C140.563 300.529 140.151 299.536 140.151 298.5C140.151 297.464 140.563 296.471 141.297 295.739L164.734 272.339C165.097 271.976 165.528 271.687 166.003 271.491C166.477 271.294 166.986 271.193 167.5 271.193C168.014 271.193 168.523 271.294 168.997 271.491C169.472 271.687 169.903 271.976 170.266 272.339L193.703 295.739C194.437 296.471 194.849 297.464 194.849 298.5C194.849 299.536 194.437 300.529 193.703 301.261C192.97 301.994 191.975 302.405 190.938 302.405C189.9 302.405 188.905 301.994 188.172 301.261L171.406 284.515V325.8H204.125C218.297 325.8 230 314.646 230 300.629C230 287.869 220.297 277.471 207.859 275.716C205.961 255.592 188.516 240 167.5 240ZM163.594 353.1V325.8H171.406V353.1C171.406 354.134 170.995 355.126 170.262 355.858C169.53 356.589 168.536 357 167.5 357C166.464 357 165.47 356.589 164.738 355.858C164.005 355.126 163.594 354.134 163.594 353.1Z" fill="white"/>
</svg>
