<svg width="192" height="409" viewBox="0 0 192 409" fill="none" xmlns="http://www.w3.org/2000/svg">
<path d="M166.5 13.8222C112.9 -5.77783 48.5 5.65551 23 13.8222C8.60008 41.0222 12.6667 124.822 16.5 163.322C4.90005 333.322 16 390.156 23 397.322C95.4 412.522 148.833 403.656 166.5 397.322C182.9 389.322 179 231.322 175 153.322C191.8 63.7222 176.333 22.9888 166.5 13.8222Z" stroke="white" stroke-width="5"/>
<path d="M167 136.822C116.2 114.822 53.5 127.655 28.5 136.822L37 189.822C90.6 174.222 137.667 183.322 154.5 189.822L167 136.822Z" stroke="white" stroke-width="5"/>
<path d="M147.5 277.322H48L30.5 363.322C76.9 386.522 133.167 372.989 155.5 363.322L147.5 277.322Z" stroke="white" stroke-width="5"/>
<path d="M59.5 9.82214C59.5 21.9888 52.5 45.5221 24.5 42.3221" stroke="white" stroke-width="5"/>
<path d="M139 13.8221C136.667 21.8221 139.6 38.7221 170 42.3221" stroke="white" stroke-width="5"/>
<path d="M16.5 165.322H3V175.822H16.5" stroke="white" stroke-width="5"/>
<path d="M176 164.322H189.5V173.822H176" stroke="white" stroke-width="5"/>
<path d="M72.5586 233.982V243H67.2852V217.406H77.2695C79.1914 217.406 80.8789 217.758 82.332 218.461C83.7969 219.164 84.9219 220.166 85.707 221.467C86.4922 222.756 86.8848 224.227 86.8848 225.879C86.8848 228.387 86.0234 230.367 84.3008 231.82C82.5898 233.262 80.2168 233.982 77.1816 233.982H72.5586ZM72.5586 229.711H77.2695C78.6641 229.711 79.7246 229.383 80.4512 228.727C81.1895 228.07 81.5586 227.133 81.5586 225.914C81.5586 224.66 81.1895 223.646 80.4512 222.873C79.7129 222.1 78.6934 221.701 77.3926 221.678H72.5586V229.711ZM103.795 236.285C103.795 235.289 103.443 234.527 102.74 234C102.037 233.461 100.771 232.898 98.9434 232.312C97.1152 231.715 95.668 231.129 94.6016 230.555C91.6953 228.984 90.2422 226.869 90.2422 224.209C90.2422 222.826 90.6289 221.596 91.4023 220.518C92.1875 219.428 93.3066 218.578 94.7598 217.969C96.2246 217.359 97.8652 217.055 99.6816 217.055C101.51 217.055 103.139 217.389 104.568 218.057C105.998 218.713 107.105 219.645 107.891 220.852C108.688 222.059 109.086 223.43 109.086 224.965H103.812C103.812 223.793 103.443 222.885 102.705 222.24C101.967 221.584 100.93 221.256 99.5938 221.256C98.3047 221.256 97.3027 221.531 96.5879 222.082C95.873 222.621 95.5156 223.336 95.5156 224.227C95.5156 225.059 95.9316 225.756 96.7637 226.318C97.6074 226.881 98.8438 227.408 100.473 227.9C103.473 228.803 105.658 229.922 107.029 231.258C108.4 232.594 109.086 234.258 109.086 236.25C109.086 238.465 108.248 240.205 106.572 241.471C104.896 242.725 102.641 243.352 99.8047 243.352C97.8359 243.352 96.043 242.994 94.4258 242.279C92.8086 241.553 91.5723 240.562 90.7168 239.309C89.873 238.055 89.4512 236.602 89.4512 234.949H94.7422C94.7422 237.773 96.4297 239.186 99.8047 239.186C101.059 239.186 102.037 238.934 102.74 238.43C103.443 237.914 103.795 237.199 103.795 236.285ZM118.279 243H113.006V217.406H118.279V243Z" fill="white"/>
</svg>
