<svg width="78" height="83" viewBox="0 0 78 83" fill="none" xmlns="http://www.w3.org/2000/svg">
<path d="M14.5285 21.3442V41.3629H18.4758V34.596H63.5884V41.3629H67.8177V21.3442L55.1298 2.17139H26.3705L14.5285 21.3442Z" stroke="white" stroke-width="3" stroke-linejoin="round"/>
<path d="M11.4269 13.4496H70.9191" stroke="white" stroke-width="3" stroke-linecap="round"/>
<path d="M14.5285 23.0359H25.8066" stroke="white" stroke-width="3" stroke-linecap="round"/>
<path d="M55.6937 23.0359H66.9719" stroke="white" stroke-width="3" stroke-linecap="round"/>
<path d="M15.9382 79.7085C15.9382 79.7085 4.02012 75.9826 1.84057 69.5582C-1.87724 58.5997 33.1877 66.816 28.3442 56.3064C26.2494 51.7611 18.4758 48.1298 18.4758 48.1298" stroke="white" stroke-width="3" stroke-linecap="round" stroke-linejoin="round"/>
<path d="M63.3012 80.5545C63.3012 80.5545 51.3831 76.8285 49.2035 70.4042C45.4857 59.4457 80.5507 67.6619 75.7072 57.1524C73.6123 52.607 65.8388 48.9757 65.8388 48.9757" stroke="white" stroke-width="3" stroke-linecap="round" stroke-linejoin="round"/>
</svg>
