<svg width="192" height="409" viewBox="0 0 192 409" fill="none" xmlns="http://www.w3.org/2000/svg">
<path d="M166.5 13.8222C112.9 -5.77783 48.5 5.65551 23 13.8222C8.60008 41.0222 12.6667 124.822 16.5 163.322C4.90005 333.322 16 390.156 23 397.322C95.4 412.522 148.833 403.656 166.5 397.322C182.9 389.322 179 231.322 175 153.322C191.8 63.7222 176.333 22.9888 166.5 13.8222Z" stroke="white" stroke-width="5"/>
<path d="M167 136.822C116.2 114.822 53.5 127.655 28.5 136.822L37 189.822C90.6 174.222 137.667 183.322 154.5 189.822L167 136.822Z" stroke="white" stroke-width="5"/>
<path d="M147.5 277.322H48L30.5 363.322C76.9 386.522 133.167 372.989 155.5 363.322L147.5 277.322Z" stroke="white" stroke-width="5"/>
<path d="M59.5 9.82227C59.5 21.9889 52.5 45.5223 24.5 42.3223" stroke="white" stroke-width="5"/>
<path d="M139 13.8223C136.667 21.8223 139.6 38.7223 170 42.3223" stroke="white" stroke-width="5"/>
<path d="M16.5 165.322H3V175.822H16.5" stroke="white" stroke-width="5"/>
<path d="M176 164.322H189.5V173.822H176" stroke="white" stroke-width="5"/>
<path d="M68.5508 245.197H64.7715L74.1934 217.406H77.9727L68.5508 245.197ZM85.373 227.953H88.0801C89.3691 227.953 90.3242 227.631 90.9453 226.986C91.5664 226.342 91.877 225.486 91.877 224.42C91.877 223.389 91.5664 222.586 90.9453 222.012C90.3359 221.438 89.4922 221.15 88.4141 221.15C87.4414 221.15 86.627 221.42 85.9707 221.959C85.3145 222.486 84.9863 223.178 84.9863 224.033H79.9062C79.9062 222.697 80.2637 221.502 80.9785 220.447C81.7051 219.381 82.7129 218.549 84.002 217.951C85.3027 217.354 86.7324 217.055 88.291 217.055C90.998 217.055 93.1191 217.705 94.6543 219.006C96.1895 220.295 96.957 222.076 96.957 224.35C96.957 225.521 96.5996 226.6 95.8848 227.584C95.1699 228.568 94.2324 229.324 93.0723 229.852C94.5137 230.367 95.5859 231.141 96.2891 232.172C97.0039 233.203 97.3613 234.422 97.3613 235.828C97.3613 238.102 96.5293 239.924 94.8652 241.295C93.2129 242.666 91.0215 243.352 88.291 243.352C85.7363 243.352 83.6445 242.678 82.0156 241.33C80.3984 239.982 79.5898 238.201 79.5898 235.986H84.6699C84.6699 236.947 85.0273 237.732 85.7422 238.342C86.4688 238.951 87.3594 239.256 88.4141 239.256C89.6211 239.256 90.5645 238.939 91.2441 238.307C91.9355 237.662 92.2812 236.812 92.2812 235.758C92.2812 233.203 90.875 231.926 88.0625 231.926H85.373V227.953ZM118.42 243H100.877V239.52L109.156 230.695C110.293 229.453 111.131 228.369 111.67 227.443C112.221 226.518 112.496 225.639 112.496 224.807C112.496 223.67 112.209 222.779 111.635 222.135C111.061 221.479 110.24 221.15 109.174 221.15C108.025 221.15 107.117 221.549 106.449 222.346C105.793 223.131 105.465 224.168 105.465 225.457H100.367C100.367 223.898 100.736 222.475 101.475 221.186C102.225 219.896 103.279 218.889 104.639 218.162C105.998 217.424 107.539 217.055 109.262 217.055C111.898 217.055 113.943 217.688 115.396 218.953C116.861 220.219 117.594 222.006 117.594 224.314C117.594 225.58 117.266 226.869 116.609 228.182C115.953 229.494 114.828 231.023 113.234 232.77L107.416 238.904H118.42V243ZM123.465 225.264L121.074 223.875C122.082 222.293 122.604 220.658 122.639 218.971V216H126.682V218.725C126.682 219.779 126.389 220.922 125.803 222.152C125.217 223.383 124.438 224.42 123.465 225.264ZM129.564 225.264L127.174 223.875C128.182 222.293 128.703 220.658 128.738 218.971V216H132.781V218.725C132.781 219.779 132.488 220.922 131.902 222.152C131.316 223.383 130.537 224.42 129.564 225.264Z" fill="white"/>
</svg>
